<svg xmlns="http://www.w3.org/2000/svg" id="canvas" viewBox="193.279 550.758 905.876 165.323"><path d="M 196.29,574.84 C 196.40 576.19, 197.31 578.10, 198.26 580.90 C 199.22 583.71, 199.98 585.24, 201.07 588.89 C 202.16 592.55, 202.93 595.12, 203.70 599.18 C 204.47 603.24, 204.59 604.99, 204.92 609.19 C 205.24 613.40, 205.17 615.70, 205.34 620.21 C 205.51 624.71, 205.52 627.16, 205.78 631.71 C 206.04 636.26, 206.22 638.79, 206.65 642.96 C 207.07 647.13, 207.41 648.96, 207.90 652.57 C 208.40 656.17, 208.33 658.22, 209.12 660.98 C 209.92 663.74, 210.57 665.01, 211.88 666.38 C 213.18 667.76, 213.99 667.99, 215.65 667.86 C 217.32 667.73, 218.52 667.10, 220.21 665.75 C 221.90 664.41, 222.92 663.07, 224.10 661.12 C 225.29 659.17, 225.61 657.74, 226.15 655.99 C 226.68 654.24, 226.89 653.21, 226.78 652.37 C 226.68 651.53, 226.35 651.38, 225.62 651.80 C 224.89 652.21, 224.21 653.07, 223.15 654.46 C 222.08 655.85, 221.39 657.00, 220.28 658.75 C 219.17 660.50, 218.62 661.80, 217.61 663.21 C 216.60 664.62, 216.03 665.45, 215.25 665.81 C 214.47 666.17, 214.30 666.14, 213.70 665.00 C 213.11 663.87, 212.90 662.71, 212.27 660.14 C 211.64 657.57, 211.21 655.63, 210.56 652.14 C 209.91 648.65, 209.53 646.81, 209.04 642.70 C 208.54 638.58, 208.38 636.08, 208.10 631.57 C 207.81 627.05, 207.77 624.63, 207.61 620.12 C 207.45 615.61, 207.56 613.31, 207.29 609.03 C 207.03 604.75, 206.98 602.91, 206.30 598.72 C 205.62 594.53, 204.92 591.88, 203.89 588.09 C 202.86 584.30, 202.37 582.56, 201.14 579.78 C 199.91 577.00, 198.71 575.16, 197.74 574.18 C 196.77 573.19, 196.19 573.50, 196.29 574.84" style="stroke: black; fill: black;"/><path d="M 262.63,586.46 C 262.13 586.47, 261.99 586.81, 261.37 587.29 C 260.76 587.78, 260.49 587.82, 259.56 588.87 C 258.62 589.93, 257.99 590.72, 256.69 592.56 C 255.39 594.40, 254.63 595.66, 253.07 598.07 C 251.50 600.47, 250.65 601.95, 248.85 604.58 C 247.05 607.21, 245.99 608.58, 244.05 611.23 C 242.11 613.88, 241.21 615.24, 239.15 617.84 C 237.08 620.44, 235.80 621.70, 233.73 624.21 C 231.66 626.72, 230.45 628.11, 228.81 630.39 C 227.17 632.67, 226.45 633.54, 225.51 635.61 C 224.57 637.67, 224.19 638.76, 224.11 640.71 C 224.03 642.65, 224.17 643.66, 225.13 645.34 C 226.09 647.03, 227.00 647.87, 228.91 649.13 C 230.82 650.39, 232.00 650.93, 234.69 651.66 C 237.39 652.38, 238.93 652.47, 242.38 652.75 C 245.84 653.03, 247.90 653.10, 251.97 653.06 C 256.04 653.02, 258.34 652.86, 262.73 652.56 C 267.12 652.26, 269.64 652.18, 273.91 651.58 C 278.18 650.97, 280.24 650.36, 284.08 649.53 C 287.92 648.71, 289.88 648.33, 293.12 647.45 C 296.35 646.58, 297.90 646.18, 300.26 645.17 C 302.62 644.15, 303.47 643.34, 304.93 642.37 C 306.39 641.41, 306.88 641.09, 307.57 640.33 C 308.25 639.58, 308.21 639.05, 308.36 638.58 C 308.50 638.12, 308.37 638.18, 308.30 638.00 C 308.23 637.81, 308.20 637.72, 307.99 637.65 C 307.78 637.59, 307.65 637.50, 307.26 637.67 C 306.87 637.85, 306.80 638.07, 306.04 638.53 C 305.29 638.99, 304.90 639.23, 303.49 639.97 C 302.09 640.72, 301.26 641.32, 299.02 642.26 C 296.79 643.20, 295.42 643.73, 292.32 644.68 C 289.22 645.64, 287.27 646.14, 283.52 647.04 C 279.77 647.93, 277.75 648.55, 273.57 649.15 C 269.38 649.75, 266.90 649.80, 262.58 650.03 C 258.27 650.25, 255.96 650.38, 251.99 650.27 C 248.02 650.17, 246.00 649.95, 242.74 649.50 C 239.47 649.05, 238.09 648.69, 235.68 648.03 C 233.27 647.36, 232.29 647.02, 230.67 646.17 C 229.05 645.33, 228.34 644.87, 227.57 643.81 C 226.81 642.75, 226.71 642.24, 226.84 640.88 C 226.97 639.51, 227.27 638.66, 228.22 636.98 C 229.18 635.29, 230.01 634.59, 231.61 632.44 C 233.21 630.29, 234.25 628.77, 236.24 626.23 C 238.23 623.69, 239.49 622.37, 241.56 619.75 C 243.62 617.13, 244.56 615.75, 246.58 613.13 C 248.60 610.51, 249.68 609.18, 251.67 606.65 C 253.66 604.12, 254.78 602.79, 256.51 600.47 C 258.24 598.14, 259.09 596.90, 260.32 595.02 C 261.54 593.13, 261.98 592.26, 262.64 591.02 C 263.30 589.79, 263.36 589.60, 263.61 588.85 C 263.86 588.09, 264.07 587.71, 263.88 587.24 C 263.68 586.76, 263.13 586.45, 262.63 586.46" style="stroke: black; fill: black;"/><path d="M 307.75,608.68 C 307.33 609.22, 307.36 609.83, 307.08 611.23 C 306.81 612.63, 306.53 613.64, 306.39 615.68 C 306.24 617.72, 306.20 618.97, 306.37 621.44 C 306.54 623.91, 306.79 625.48, 307.24 628.02 C 307.70 630.56, 307.98 631.76, 308.63 634.12 C 309.28 636.49, 309.79 637.69, 310.49 639.86 C 311.19 642.02, 311.58 643.06, 312.12 644.94 C 312.67 646.81, 312.84 647.79, 313.21 649.24 C 313.59 650.69, 313.77 651.29, 314.01 652.19 C 314.24 653.10, 314.12 653.43, 314.39 653.78 C 314.65 654.13, 314.93 654.27, 315.32 653.96 C 315.71 653.64, 316.10 653.25, 316.34 652.19 C 316.57 651.14, 316.66 650.31, 316.50 648.67 C 316.33 647.03, 316.04 645.97, 315.51 643.99 C 314.98 642.02, 314.54 640.94, 313.86 638.79 C 313.18 636.63, 312.68 635.49, 312.13 633.22 C 311.58 630.94, 311.40 629.84, 311.09 627.43 C 310.78 625.02, 310.71 623.51, 310.59 621.18 C 310.47 618.85, 310.53 617.77, 310.49 615.78 C 310.44 613.79, 310.63 612.70, 310.37 611.25 C 310.11 609.80, 309.71 609.05, 309.19 608.54 C 308.66 608.03, 308.17 608.14, 307.75 608.68" style="stroke: black; fill: black;"/><path d="M 295.28,583.54 C 295.66 583.09, 295.59 582.49, 295.38 582.10 C 295.17 581.72, 294.70 581.64, 294.21 581.62 C 293.72 581.60, 293.31 581.67, 292.92 582.00 C 292.53 582.33, 292.16 582.81, 292.26 583.28 C 292.37 583.74, 292.85 584.28, 293.45 584.34 C 294.05 584.39, 294.89 583.99, 295.28 583.54" style="stroke: black; fill: black;"/><path d="M 339.82,608.18 C 339.41 608.61, 339.33 609.02, 339.15 610.21 C 338.97 611.40, 338.77 612.25, 338.92 614.13 C 339.08 616.00, 339.54 617.26, 339.93 619.60 C 340.31 621.93, 340.56 623.28, 340.84 625.80 C 341.12 628.33, 341.18 629.56, 341.31 632.21 C 341.44 634.86, 341.40 636.47, 341.50 639.04 C 341.59 641.62, 341.66 642.91, 341.79 645.09 C 341.91 647.26, 341.70 648.39, 342.12 649.91 C 342.54 651.44, 343.06 652.35, 343.87 652.71 C 344.69 653.06, 345.39 652.71, 346.17 651.69 C 346.96 650.67, 347.25 649.69, 347.82 647.61 C 348.39 645.53, 348.59 643.99, 349.01 641.29 C 349.43 638.59, 349.36 637.01, 349.92 634.12 C 350.49 631.23, 350.91 629.63, 351.84 626.83 C 352.77 624.04, 353.31 622.73, 354.59 620.15 C 355.86 617.56, 356.58 616.32, 358.21 613.90 C 359.84 611.49, 360.81 610.08, 362.74 608.07 C 364.67 606.06, 365.70 605.27, 367.85 603.84 C 370.01 602.41, 371.36 601.78, 373.52 600.93 C 375.68 600.07, 376.71 599.70, 378.66 599.55 C 380.61 599.40, 381.45 599.47, 383.25 600.17 C 385.05 600.88, 385.95 601.53, 387.67 603.09 C 389.39 604.64, 390.24 605.69, 391.85 607.95 C 393.45 610.21, 394.52 611.66, 395.69 614.41 C 396.87 617.16, 397.21 618.84, 397.70 621.71 C 398.19 624.58, 398.01 626.02, 398.14 628.75 C 398.27 631.49, 398.24 633.10, 398.36 635.39 C 398.49 637.68, 398.44 638.84, 398.76 640.21 C 399.09 641.59, 399.32 642.19, 399.99 642.26 C 400.65 642.34, 401.25 641.77, 402.10 640.57 C 402.95 639.38, 403.31 638.41, 404.24 636.30 C 405.18 634.20, 405.58 632.73, 406.77 630.05 C 407.95 627.36, 408.55 625.65, 410.18 622.89 C 411.81 620.14, 412.73 618.76, 414.91 616.26 C 417.10 613.77, 418.49 612.49, 421.09 610.41 C 423.70 608.34, 425.11 607.36, 427.92 605.90 C 430.74 604.44, 432.32 603.84, 435.18 603.11 C 438.05 602.38, 439.49 602.16, 442.25 602.26 C 445.02 602.35, 446.45 602.69, 449.01 603.57 C 451.58 604.45, 452.97 605.12, 455.10 606.67 C 457.22 608.21, 458.09 609.17, 459.66 611.31 C 461.23 613.44, 461.93 614.66, 462.94 617.34 C 463.95 620.03, 464.26 621.57, 464.70 624.74 C 465.13 627.92, 465.08 629.96, 465.12 633.21 C 465.17 636.46, 464.89 638.31, 464.91 640.98 C 464.93 643.64, 465.07 644.72, 465.22 646.54 C 465.37 648.35, 465.35 649.34, 465.66 650.06 C 465.97 650.78, 466.35 650.82, 466.76 650.14 C 467.18 649.46, 467.40 648.48, 467.74 646.67 C 468.08 644.85, 468.32 643.77, 468.46 641.06 C 468.61 638.35, 468.57 636.48, 468.45 633.13 C 468.33 629.78, 468.36 627.68, 467.87 624.29 C 467.38 620.91, 467.08 619.21, 465.98 616.21 C 464.88 613.22, 464.15 611.79, 462.37 609.33 C 460.60 606.87, 459.55 605.70, 457.09 603.92 C 454.63 602.14, 453.02 601.39, 450.07 600.42 C 447.12 599.45, 445.47 599.12, 442.33 599.06 C 439.20 599.00, 437.57 599.29, 434.41 600.12 C 431.25 600.96, 429.56 601.64, 426.53 603.23 C 423.50 604.82, 422.03 605.89, 419.25 608.09 C 416.47 610.29, 415.02 611.62, 412.64 614.23 C 410.26 616.83, 409.25 618.28, 407.34 621.09 C 405.43 623.90, 404.52 625.54, 403.09 628.27 C 401.66 630.99, 400.95 632.46, 400.19 634.72 C 399.42 636.99, 399.31 638.14, 399.26 639.60 C 399.20 641.06, 399.49 641.86, 399.91 642.00 C 400.34 642.14, 400.98 641.62, 401.38 640.29 C 401.79 638.96, 401.89 637.69, 401.95 635.35 C 402.02 633.00, 401.90 631.40, 401.71 628.55 C 401.53 625.71, 401.60 624.21, 401.04 621.12 C 400.48 618.02, 400.14 616.13, 398.90 613.08 C 397.66 610.02, 396.63 608.36, 394.84 605.83 C 393.06 603.30, 392.06 602.14, 389.96 600.41 C 387.86 598.69, 386.64 598.00, 384.34 597.20 C 382.04 596.40, 380.88 596.30, 378.47 596.41 C 376.07 596.52, 374.83 596.84, 372.32 597.74 C 369.81 598.64, 368.33 599.32, 365.92 600.92 C 363.51 602.51, 362.35 603.49, 360.26 605.72 C 358.16 607.94, 357.17 609.45, 355.44 612.04 C 353.71 614.64, 352.99 615.94, 351.62 618.67 C 350.26 621.41, 349.69 622.79, 348.61 625.70 C 347.54 628.62, 347.08 630.29, 346.27 633.25 C 345.45 636.21, 345.07 637.77, 344.54 640.50 C 344.00 643.23, 343.72 644.78, 343.58 646.89 C 343.43 648.99, 343.60 649.98, 343.81 651.02 C 344.02 652.06, 344.35 652.35, 344.62 652.07 C 344.88 651.79, 344.99 651.05, 345.14 649.64 C 345.28 648.22, 345.33 647.15, 345.35 645.00 C 345.38 642.86, 345.31 641.53, 345.25 638.93 C 345.20 636.34, 345.18 634.74, 345.08 632.05 C 344.99 629.36, 344.93 628.09, 344.77 625.47 C 344.61 622.85, 344.61 621.33, 344.27 618.93 C 343.93 616.53, 343.49 615.28, 343.07 613.48 C 342.66 611.69, 342.58 611.03, 342.20 609.95 C 341.82 608.86, 341.66 608.41, 341.18 608.06 C 340.71 607.70, 340.23 607.75, 339.82 608.18" style="stroke: black; fill: black;"/><path d="M 584.81,555.10 C 584.31 555.54, 583.88 556.01, 583.58 557.48 C 583.29 558.96, 583.16 560.13, 583.34 562.49 C 583.52 564.85, 583.90 566.42, 584.48 569.28 C 585.06 572.13, 585.62 573.53, 586.23 576.77 C 586.83 580.01, 586.95 581.79, 587.50 585.47 C 588.04 589.16, 588.40 591.26, 588.96 595.19 C 589.52 599.12, 589.75 601.01, 590.31 605.12 C 590.88 609.22, 591.15 611.51, 591.78 615.72 C 592.40 619.94, 592.86 622.19, 593.44 626.19 C 594.02 630.19, 594.22 632.24, 594.68 635.72 C 595.14 639.20, 595.23 640.82, 595.74 643.60 C 596.25 646.37, 596.60 647.69, 597.24 649.59 C 597.88 651.49, 598.40 652.46, 598.96 653.10 C 599.52 653.74, 599.89 653.61, 600.05 652.80 C 600.20 651.98, 599.96 650.99, 599.74 649.04 C 599.52 647.08, 599.43 645.77, 598.96 643.03 C 598.50 640.28, 598.02 638.75, 597.42 635.30 C 596.82 631.86, 596.60 629.80, 595.96 625.81 C 595.32 621.82, 594.84 619.56, 594.20 615.36 C 593.56 611.16, 593.30 608.89, 592.78 604.79 C 592.26 600.69, 592.06 598.78, 591.58 594.84 C 591.09 590.90, 590.78 588.81, 590.35 585.10 C 589.93 581.39, 589.84 579.58, 589.47 576.29 C 589.10 572.99, 588.89 571.47, 588.52 568.61 C 588.15 565.75, 587.97 564.20, 587.61 561.98 C 587.24 559.75, 586.97 558.82, 586.68 557.48 C 586.38 556.14, 586.48 555.77, 586.11 555.29 C 585.74 554.81, 585.32 554.66, 584.81 555.10" style="stroke: black; fill: black;"/><path d="M 584.40,554.81 C 584.48 555.66, 585.04 556.64, 586.00 558.08 C 586.96 559.53, 587.47 560.42, 589.20 562.05 C 590.93 563.68, 592.28 564.61, 594.65 566.23 C 597.01 567.85, 598.58 568.47, 601.02 570.15 C 603.47 571.83, 604.48 572.70, 606.87 574.63 C 609.26 576.56, 610.53 577.67, 612.97 579.82 C 615.41 581.97, 616.70 583.21, 619.06 585.38 C 621.42 587.55, 622.50 588.54, 624.75 590.68 C 627.00 592.82, 628.02 593.86, 630.31 596.09 C 632.60 598.32, 633.86 599.60, 636.20 601.83 C 638.54 604.06, 639.72 605.20, 642.00 607.24 C 644.27 609.28, 645.28 610.29, 647.57 612.03 C 649.86 613.77, 651.04 614.62, 653.46 615.94 C 655.87 617.27, 657.19 618.06, 659.64 618.66 C 662.09 619.25, 663.31 619.31, 665.72 618.91 C 668.13 618.52, 669.45 617.88, 671.68 616.70 C 673.91 615.51, 674.97 614.90, 676.87 612.99 C 678.77 611.08, 679.65 609.74, 681.15 607.15 C 682.66 604.56, 683.19 603.04, 684.40 600.02 C 685.61 597.01, 686.16 595.35, 687.22 592.08 C 688.28 588.81, 688.85 586.73, 689.70 583.66 C 690.56 580.58, 690.97 579.11, 691.49 576.71 C 692.00 574.32, 692.20 573.06, 692.29 571.69 C 692.39 570.32, 692.27 569.80, 691.97 569.85 C 691.68 569.89, 691.28 570.47, 690.81 571.92 C 690.33 573.37, 689.76 574.46, 689.58 577.11 C 689.41 579.75, 689.83 581.67, 689.92 585.15 C 690.02 588.63, 690.22 590.61, 690.05 594.50 C 689.89 598.40, 689.36 600.46, 689.08 604.62 C 688.80 608.78, 688.73 611.05, 688.66 615.30 C 688.58 619.55, 688.58 621.72, 688.71 625.86 C 688.84 630.00, 688.87 632.15, 689.29 635.99 C 689.71 639.83, 689.94 641.74, 690.83 645.04 C 691.71 648.35, 692.26 650.06, 693.70 652.50 C 695.14 654.94, 696.40 655.94, 698.04 657.26 C 699.68 658.58, 700.62 658.79, 701.89 659.10 C 703.17 659.41, 703.88 659.06, 704.40 658.82 C 704.92 658.57, 704.83 658.19, 704.49 657.85 C 704.15 657.52, 703.58 657.70, 702.69 657.13 C 701.81 656.57, 701.29 656.28, 700.05 655.02 C 698.82 653.76, 697.80 652.98, 696.51 650.83 C 695.22 648.68, 694.53 647.28, 693.60 644.25 C 692.68 641.22, 692.36 639.37, 691.88 635.68 C 691.39 631.98, 691.34 629.84, 691.18 625.78 C 691.03 621.71, 691.02 619.54, 691.11 615.34 C 691.20 611.15, 691.26 608.95, 691.62 604.82 C 691.98 600.69, 692.54 598.62, 692.91 594.70 C 693.28 590.78, 693.25 588.69, 693.45 585.21 C 693.66 581.73, 693.86 579.93, 693.93 577.30 C 693.99 574.68, 694.11 573.65, 693.78 572.06 C 693.44 570.47, 693.02 569.61, 692.26 569.38 C 691.50 569.14, 690.79 569.58, 689.96 570.88 C 689.12 572.17, 688.80 573.46, 688.09 575.85 C 687.39 578.23, 687.24 579.74, 686.45 582.79 C 685.66 585.83, 685.18 587.90, 684.15 591.09 C 683.12 594.28, 682.54 595.90, 681.32 598.74 C 680.09 601.59, 679.43 602.96, 678.03 605.32 C 676.64 607.67, 675.94 608.84, 674.34 610.52 C 672.74 612.20, 671.87 612.67, 670.04 613.71 C 668.20 614.75, 667.08 615.38, 665.17 615.74 C 663.25 616.10, 662.46 616.09, 660.46 615.53 C 658.45 614.96, 657.32 614.16, 655.15 612.92 C 652.99 611.67, 651.81 610.93, 649.61 609.30 C 647.42 607.67, 646.41 606.74, 644.17 604.78 C 641.93 602.82, 640.74 601.69, 638.40 599.50 C 636.06 597.31, 634.77 596.07, 632.47 593.85 C 630.17 591.64, 629.14 590.60, 626.89 588.44 C 624.64 586.28, 623.57 585.26, 621.21 583.06 C 618.84 580.86, 617.53 579.63, 615.08 577.44 C 612.63 575.25, 611.35 574.15, 608.96 572.11 C 606.58 570.07, 605.54 569.11, 603.15 567.25 C 600.76 565.39, 599.30 564.46, 597.03 562.83 C 594.75 561.20, 593.49 560.47, 591.76 559.10 C 590.04 557.73, 589.63 557.03, 588.41 555.98 C 587.18 554.92, 586.43 554.06, 585.63 553.83 C 584.83 553.59, 584.33 553.96, 584.40 554.81" style="stroke: black; fill: black;"/><path d="M 713.96,610.31 C 713.40 610.82, 713.07 611.79, 712.75 613.11 C 712.42 614.44, 712.40 615.10, 712.34 616.96 C 712.28 618.81, 712.35 620.11, 712.45 622.38 C 712.56 624.65, 712.73 625.81, 712.87 628.30 C 713.00 630.78, 712.95 632.21, 713.15 634.81 C 713.34 637.40, 713.52 638.94, 713.84 641.27 C 714.16 643.60, 714.42 644.68, 714.75 646.46 C 715.08 648.25, 715.12 649.01, 715.50 650.20 C 715.87 651.39, 716.18 652.00, 716.61 652.40 C 717.05 652.80, 717.41 652.69, 717.67 652.19 C 717.93 651.69, 717.83 651.12, 717.90 649.90 C 717.98 648.68, 718.12 647.90, 718.05 646.09 C 717.97 644.28, 717.74 643.16, 717.54 640.85 C 717.34 638.55, 717.17 637.10, 717.02 634.55 C 716.88 632.00, 716.90 630.59, 716.81 628.12 C 716.73 625.64, 716.70 624.43, 716.58 622.18 C 716.47 619.93, 716.38 618.64, 716.24 616.87 C 716.09 615.10, 716.01 614.60, 715.87 613.34 C 715.74 612.08, 715.93 611.17, 715.55 610.57 C 715.17 609.96, 714.52 609.80, 713.96 610.31" style="stroke: black; fill: black;"/><path d="M 706.73,587.13 C 706.97 587.61, 707.24 587.87, 707.42 587.81 C 707.60 587.75, 707.67 587.35, 707.63 586.83 C 707.58 586.30, 707.43 585.65, 707.21 585.17 C 706.98 584.69, 706.68 584.38, 706.49 584.42 C 706.29 584.47, 706.16 584.85, 706.21 585.39 C 706.26 585.93, 706.49 586.65, 706.73 587.13" style="stroke: black; fill: black;"/><path d="M 740.79,599.73 C 740.51 600.45, 740.51 601.39, 740.81 602.94 C 741.11 604.49, 741.61 605.35, 742.31 607.47 C 743.01 609.59, 743.60 611.06, 744.30 613.52 C 745.00 615.98, 745.21 617.09, 745.80 619.77 C 746.40 622.45, 746.81 624.06, 747.29 626.92 C 747.77 629.78, 747.93 631.31, 748.21 634.06 C 748.50 636.82, 748.58 638.20, 748.71 640.71 C 748.83 643.22, 748.61 644.67, 748.83 646.62 C 749.05 648.57, 749.35 649.46, 749.79 650.45 C 750.23 651.44, 750.55 651.60, 751.01 651.57 C 751.47 651.53, 751.69 651.28, 752.08 650.27 C 752.48 649.26, 752.70 648.34, 752.97 646.53 C 753.24 644.71, 753.18 643.50, 753.44 641.18 C 753.70 638.86, 753.80 637.53, 754.28 634.94 C 754.75 632.36, 755.02 630.94, 755.83 628.26 C 756.64 625.57, 757.13 624.19, 758.34 621.52 C 759.54 618.84, 760.37 617.42, 761.86 614.89 C 763.34 612.36, 764.18 611.06, 765.77 608.86 C 767.36 606.66, 768.06 605.59, 769.81 603.89 C 771.55 602.18, 772.62 601.51, 774.49 600.34 C 776.36 599.17, 777.34 598.64, 779.15 598.04 C 780.95 597.45, 781.83 597.36, 783.52 597.35 C 785.22 597.35, 786.16 597.41, 787.60 598.02 C 789.05 598.63, 789.57 599.06, 790.74 600.40 C 791.92 601.73, 792.45 602.70, 793.47 604.70 C 794.49 606.70, 795.03 607.89, 795.84 610.38 C 796.65 612.87, 797.00 614.24, 797.52 617.15 C 798.05 620.07, 798.12 621.82, 798.46 624.95 C 798.80 628.07, 798.90 630.05, 799.21 632.78 C 799.52 635.50, 799.74 636.64, 800.01 638.58 C 800.28 640.52, 800.28 641.38, 800.55 642.48 C 800.81 643.57, 800.86 643.71, 801.32 644.06 C 801.77 644.41, 802.43 644.48, 802.83 644.22 C 803.23 643.96, 803.63 643.05, 803.30 642.77 C 802.98 642.49, 801.52 642.60, 801.21 642.81 C 800.89 643.02, 801.49 643.65, 801.73 643.83 C 801.97 644.01, 802.16 644.00, 802.41 643.71 C 802.67 643.42, 802.83 643.44, 803.00 642.37 C 803.16 641.29, 803.24 640.34, 803.23 638.35 C 803.21 636.35, 803.17 635.15, 802.91 632.39 C 802.65 629.64, 802.32 627.72, 801.94 624.55 C 801.56 621.39, 801.50 619.63, 801.01 616.56 C 800.52 613.49, 800.33 611.95, 799.48 609.22 C 798.63 606.50, 798.00 605.16, 796.74 602.94 C 795.48 600.71, 794.78 599.65, 793.19 598.08 C 791.61 596.51, 790.76 595.87, 788.83 595.08 C 786.90 594.28, 785.68 594.14, 783.55 594.10 C 781.41 594.07, 780.32 594.25, 778.15 594.92 C 775.98 595.59, 774.85 596.15, 772.71 597.46 C 770.57 598.76, 769.40 599.57, 767.44 601.44 C 765.49 603.31, 764.64 604.45, 762.93 606.80 C 761.22 609.14, 760.44 610.50, 758.89 613.16 C 757.34 615.81, 756.50 617.27, 755.19 620.07 C 753.88 622.87, 753.31 624.33, 752.35 627.14 C 751.40 629.95, 751.07 631.43, 750.42 634.12 C 749.78 636.81, 749.51 638.17, 749.12 640.59 C 748.73 643.01, 748.46 644.24, 748.46 646.21 C 748.47 648.18, 748.64 649.32, 749.15 650.43 C 749.66 651.54, 750.42 651.80, 751.02 651.76 C 751.62 651.72, 751.91 651.29, 752.16 650.23 C 752.41 649.17, 752.23 648.39, 752.26 646.45 C 752.29 644.52, 752.39 643.12, 752.31 640.57 C 752.23 638.01, 752.16 636.53, 751.86 633.69 C 751.57 630.84, 751.31 629.27, 750.84 626.34 C 750.37 623.41, 750.03 621.79, 749.52 619.02 C 749.01 616.24, 748.93 615.07, 748.28 612.46 C 747.64 609.85, 747.18 608.11, 746.27 605.98 C 745.37 603.84, 744.59 603.12, 743.77 601.79 C 742.96 600.46, 742.80 599.75, 742.21 599.33 C 741.61 598.92, 741.07 599.01, 740.79 599.73" style="stroke: black; fill: black;"/><path d="M 830.59,610.15 C 830.18 610.57, 830.11 610.99, 829.92 612.12 C 829.73 613.24, 829.59 614.03, 829.65 615.77 C 829.72 617.51, 829.99 618.52, 830.25 620.81 C 830.51 623.10, 830.51 624.61, 830.96 627.23 C 831.41 629.85, 831.80 631.00, 832.50 633.91 C 833.21 636.83, 833.68 638.56, 834.47 641.80 C 835.25 645.03, 835.79 646.70, 836.43 650.09 C 837.06 653.48, 837.15 655.19, 837.65 658.75 C 838.15 662.31, 838.47 664.37, 838.93 667.91 C 839.40 671.44, 839.56 673.08, 839.97 676.41 C 840.38 679.74, 840.76 681.52, 840.96 684.56 C 841.17 687.60, 841.11 689.03, 841.00 691.60 C 840.88 694.16, 840.77 695.21, 840.39 697.38 C 840.00 699.54, 839.80 700.67, 839.07 702.41 C 838.34 704.15, 837.84 704.83, 836.74 706.07 C 835.65 707.31, 834.90 707.86, 833.58 708.62 C 832.25 709.37, 831.64 709.92, 830.14 709.83 C 828.64 709.74, 827.81 709.05, 826.06 708.17 C 824.32 707.29, 823.03 706.63, 821.41 705.42 C 819.79 704.21, 819.03 703.93, 817.96 702.11 C 816.89 700.29, 816.75 698.62, 816.06 696.32 C 815.37 694.02, 815.09 692.59, 814.51 690.61 C 813.94 688.62, 813.73 687.21, 813.20 686.39 C 812.66 685.57, 812.22 685.55, 811.82 686.50 C 811.43 687.45, 811.14 688.94, 811.23 691.12 C 811.31 693.31, 811.51 694.87, 812.25 697.44 C 812.99 700.01, 813.53 701.82, 814.92 703.99 C 816.31 706.16, 817.29 706.76, 819.19 708.28 C 821.10 709.80, 822.27 710.64, 824.45 711.60 C 826.63 712.56, 827.95 713.11, 830.09 713.08 C 832.22 713.05, 833.31 712.42, 835.13 711.45 C 836.95 710.48, 837.79 709.78, 839.17 708.23 C 840.56 706.67, 841.17 705.72, 842.04 703.67 C 842.92 701.62, 843.10 700.34, 843.55 697.96 C 844.00 695.57, 844.18 694.47, 844.29 691.74 C 844.40 689.01, 844.39 687.45, 844.11 684.31 C 843.83 681.17, 843.37 679.39, 842.90 676.03 C 842.43 672.67, 842.25 671.06, 841.77 667.53 C 841.28 663.99, 840.97 661.95, 840.49 658.36 C 840.01 654.77, 839.95 653.02, 839.38 649.56 C 838.80 646.11, 838.29 644.37, 837.61 641.09 C 836.93 637.81, 836.55 636.04, 835.99 633.15 C 835.43 630.27, 835.10 629.24, 834.81 626.68 C 834.52 624.12, 834.75 622.62, 834.52 620.36 C 834.29 618.09, 833.98 617.04, 833.68 615.35 C 833.39 613.66, 833.37 612.97, 833.03 611.90 C 832.69 610.83, 832.46 610.36, 831.98 610.01 C 831.49 609.66, 831.00 609.73, 830.59 610.15" style="stroke: black; fill: black;"/><path d="M 830.12,562.02 C 830.19 563.03, 830.71 564.49, 831.81 566.12 C 832.90 567.74, 834.50 569.56, 835.59 570.13 C 836.69 570.69, 837.44 570.18, 837.29 568.95 C 837.13 567.72, 835.99 565.56, 834.82 563.98 C 833.65 562.40, 832.38 561.45, 831.44 561.06 C 830.50 560.67, 830.04 561.01, 830.12 562.02" style="stroke: black; fill: black;"/><path d="M 899.73,617.80 C 900.09 617.91, 899.80 617.88, 899.99 618.03 C 900.18 618.19, 900.29 618.55, 900.66 618.58 C 901.02 618.61, 901.29 618.30, 901.82 618.17 C 902.35 618.04, 902.63 618.17, 903.32 617.93 C 904.01 617.68, 904.61 617.46, 905.28 616.95 C 905.96 616.44, 906.37 616.05, 906.68 615.37 C 907.00 614.69, 906.94 614.26, 906.88 613.55 C 906.82 612.83, 906.80 612.47, 906.38 611.81 C 905.96 611.14, 905.63 610.62, 904.79 610.23 C 903.96 609.84, 903.29 609.88, 902.20 609.85 C 901.11 609.81, 900.71 609.91, 899.35 610.06 C 897.99 610.22, 897.13 610.20, 895.41 610.63 C 893.68 611.06, 892.64 611.36, 890.71 612.22 C 888.78 613.08, 887.79 613.64, 885.77 614.93 C 883.75 616.23, 882.58 617.00, 880.60 618.69 C 878.62 620.38, 877.64 621.38, 875.87 623.37 C 874.10 625.37, 873.16 626.49, 871.75 628.66 C 870.33 630.84, 869.60 631.93, 868.79 634.25 C 867.99 636.57, 867.69 637.87, 867.74 640.26 C 867.80 642.65, 868.03 644.02, 869.07 646.21 C 870.11 648.41, 871.07 649.54, 872.95 651.22 C 874.83 652.90, 875.89 653.59, 878.46 654.59 C 881.04 655.59, 882.79 655.90, 885.82 656.21 C 888.85 656.52, 890.44 656.46, 893.61 656.14 C 896.78 655.82, 898.40 655.52, 901.69 654.63 C 904.97 653.73, 906.87 653.06, 910.04 651.67 C 913.21 650.28, 914.67 649.46, 917.55 647.67 C 920.43 645.89, 921.89 644.92, 924.43 642.76 C 926.97 640.59, 928.32 639.39, 930.25 636.85 C 932.19 634.32, 933.12 632.79, 934.09 630.07 C 935.06 627.36, 935.05 625.95, 935.13 623.28 C 935.20 620.60, 935.09 619.32, 934.46 616.72 C 933.82 614.11, 933.30 612.51, 931.95 610.24 C 930.60 607.96, 929.46 606.90, 927.70 605.34 C 925.93 603.78, 924.97 603.23, 923.14 602.46 C 921.31 601.69, 919.57 601.40, 918.54 601.49 C 917.51 601.59, 917.35 602.20, 917.99 602.93 C 918.62 603.66, 920.24 604.16, 921.72 605.14 C 923.19 606.13, 923.94 606.47, 925.36 607.86 C 926.78 609.26, 927.66 610.16, 928.81 612.10 C 929.97 614.04, 930.51 615.36, 931.13 617.58 C 931.75 619.80, 931.95 620.94, 931.91 623.21 C 931.88 625.48, 931.82 626.61, 930.97 628.94 C 930.12 631.28, 929.36 632.59, 927.65 634.89 C 925.94 637.18, 924.76 638.38, 922.42 640.42 C 920.08 642.47, 918.67 643.41, 915.95 645.10 C 913.23 646.78, 911.83 647.56, 908.82 648.85 C 905.80 650.15, 903.98 650.79, 900.88 651.57 C 897.78 652.36, 896.26 652.59, 893.33 652.79 C 890.39 652.99, 888.94 652.89, 886.22 652.57 C 883.50 652.26, 881.93 652.00, 879.72 651.21 C 877.52 650.43, 876.71 649.95, 875.19 648.66 C 873.67 647.36, 872.95 646.43, 872.12 644.74 C 871.29 643.05, 871.05 642.06, 871.02 640.19 C 870.99 638.33, 871.22 637.31, 871.96 635.41 C 872.70 633.51, 873.39 632.58, 874.73 630.68 C 876.07 628.78, 877.00 627.71, 878.67 625.90 C 880.34 624.09, 881.24 623.15, 883.07 621.62 C 884.91 620.08, 886.00 619.36, 887.84 618.21 C 889.69 617.05, 890.59 616.57, 892.30 615.84 C 894.01 615.10, 894.90 614.93, 896.41 614.53 C 897.91 614.13, 898.70 613.99, 899.82 613.84 C 900.94 613.69, 901.21 613.72, 901.99 613.78 C 902.76 613.85, 903.12 614.18, 903.69 614.18 C 904.25 614.18, 904.63 613.98, 904.80 613.78 C 904.98 613.59, 904.72 613.29, 904.57 613.23 C 904.42 613.17, 904.27 613.40, 904.05 613.47 C 903.83 613.55, 903.86 613.51, 903.46 613.58 C 903.06 613.65, 902.65 613.67, 902.07 613.81 C 901.49 613.96, 901.11 614.08, 900.56 614.30 C 900.00 614.52, 899.78 614.59, 899.31 614.92 C 898.84 615.26, 898.42 615.47, 898.20 615.99 C 897.98 616.50, 897.90 617.13, 898.20 617.49 C 898.51 617.85, 899.37 617.69, 899.73 617.80" style="stroke: black; fill: black;"/><path d="M 985.12,611.15 C 984.94 610.31, 984.20 609.37, 983.13 608.19 C 982.05 607.01, 981.38 606.35, 979.73 605.25 C 978.09 604.15, 977.10 603.42, 974.90 602.69 C 972.70 601.96, 971.25 601.75, 968.74 601.59 C 966.23 601.42, 964.92 601.56, 962.34 601.87 C 959.77 602.18, 958.57 602.35, 955.87 603.13 C 953.16 603.91, 951.60 604.51, 948.80 605.78 C 946.00 607.05, 944.47 607.83, 941.85 609.49 C 939.23 611.16, 938.01 612.13, 935.70 614.11 C 933.40 616.09, 932.14 617.04, 930.32 619.39 C 928.50 621.74, 927.58 623.18, 926.60 625.85 C 925.61 628.52, 925.38 630.08, 925.40 632.76 C 925.42 635.44, 925.59 636.80, 926.71 639.24 C 927.84 641.67, 928.64 643.01, 931.03 644.92 C 933.41 646.83, 935.27 647.66, 938.64 648.80 C 942.00 649.94, 944.00 650.25, 947.85 650.61 C 951.70 650.97, 953.89 650.91, 957.87 650.62 C 961.86 650.33, 964.10 650.09, 967.79 649.18 C 971.47 648.26, 973.10 647.56, 976.30 646.05 C 979.49 644.54, 981.17 643.64, 983.77 641.64 C 986.37 639.64, 987.52 638.40, 989.29 636.04 C 991.06 633.68, 991.73 632.45, 992.62 629.83 C 993.50 627.20, 993.74 625.56, 993.73 622.91 C 993.72 620.25, 993.39 618.98, 992.54 616.54 C 991.70 614.09, 990.86 612.73, 989.52 610.69 C 988.18 608.64, 987.30 607.61, 985.85 606.33 C 984.40 605.04, 983.16 604.48, 982.27 604.26 C 981.37 604.05, 981.12 604.43, 981.38 605.25 C 981.63 606.08, 982.55 606.88, 983.55 608.37 C 984.56 609.85, 985.26 610.79, 986.40 612.67 C 987.55 614.54, 988.47 615.67, 989.27 617.73 C 990.07 619.79, 990.36 620.74, 990.41 622.95 C 990.46 625.16, 990.26 626.55, 989.51 628.78 C 988.76 631.01, 988.18 632.00, 986.66 634.10 C 985.13 636.19, 984.21 637.37, 981.89 639.26 C 979.57 641.14, 978.03 642.05, 975.07 643.51 C 972.12 644.97, 970.61 645.67, 967.13 646.54 C 963.65 647.42, 961.48 647.65, 957.69 647.89 C 953.89 648.12, 951.75 648.15, 948.15 647.73 C 944.56 647.31, 942.69 646.91, 939.70 645.80 C 936.70 644.69, 935.21 643.77, 933.19 642.19 C 931.16 640.61, 930.46 639.78, 929.56 637.90 C 928.66 636.01, 928.62 634.95, 928.67 632.78 C 928.73 630.62, 928.94 629.32, 929.82 627.07 C 930.70 624.82, 931.46 623.61, 933.08 621.54 C 934.70 619.46, 935.80 618.52, 937.92 616.70 C 940.04 614.87, 941.23 613.96, 943.69 612.43 C 946.16 610.90, 947.62 610.21, 950.26 609.05 C 952.90 607.89, 954.38 607.35, 956.87 606.63 C 959.37 605.91, 960.43 605.69, 962.75 605.44 C 965.06 605.20, 966.27 605.21, 968.46 605.40 C 970.65 605.58, 971.84 605.76, 973.69 606.36 C 975.54 606.96, 976.26 607.51, 977.71 608.40 C 979.16 609.28, 979.68 609.99, 980.94 610.78 C 982.21 611.58, 983.19 612.30, 984.03 612.37 C 984.86 612.45, 985.30 611.99, 985.12 611.15" style="stroke: black; fill: black;"/><path d="M 1013.97,610.89 C 1013.51 611.34, 1013.48 612.03, 1013.24 613.11 C 1012.99 614.19, 1012.82 614.79, 1012.74 616.30 C 1012.66 617.82, 1012.71 618.86, 1012.82 620.70 C 1012.93 622.54, 1013.14 623.65, 1013.30 625.50 C 1013.46 627.35, 1013.41 628.16, 1013.62 629.94 C 1013.84 631.72, 1014.17 632.87, 1014.37 634.42 C 1014.57 635.96, 1014.39 636.61, 1014.63 637.67 C 1014.87 638.74, 1015.09 639.37, 1015.58 639.75 C 1016.06 640.12, 1016.55 640.04, 1017.07 639.55 C 1017.59 639.06, 1017.89 638.56, 1018.18 637.29 C 1018.47 636.02, 1018.44 635.02, 1018.51 633.20 C 1018.57 631.37, 1018.43 630.17, 1018.52 628.15 C 1018.60 626.14, 1018.51 625.17, 1018.94 623.11 C 1019.37 621.06, 1019.92 620.05, 1020.67 617.90 C 1021.42 615.76, 1021.75 614.51, 1022.71 612.38 C 1023.67 610.25, 1024.10 609.17, 1025.46 607.24 C 1026.82 605.30, 1027.68 604.35, 1029.49 602.69 C 1031.30 601.04, 1032.41 600.22, 1034.51 598.96 C 1036.62 597.70, 1037.75 597.20, 1040.00 596.40 C 1042.26 595.59, 1043.48 595.30, 1045.78 594.92 C 1048.08 594.54, 1049.23 594.24, 1051.51 594.49 C 1053.79 594.75, 1054.91 595.14, 1057.17 596.18 C 1059.44 597.22, 1060.56 597.90, 1062.83 599.68 C 1065.11 601.45, 1066.37 602.56, 1068.55 605.05 C 1070.73 607.54, 1071.67 609.17, 1073.72 612.12 C 1075.76 615.08, 1076.92 616.77, 1078.78 619.82 C 1080.64 622.87, 1081.56 624.42, 1083.01 627.37 C 1084.45 630.32, 1084.66 631.94, 1086.00 634.56 C 1087.34 637.17, 1088.53 638.30, 1089.69 640.44 C 1090.86 642.58, 1090.80 643.46, 1091.82 645.25 C 1092.84 647.03, 1093.92 648.69, 1094.79 649.37 C 1095.65 650.06, 1096.21 649.73, 1096.15 648.66 C 1096.08 647.58, 1095.19 645.95, 1094.47 644.01 C 1093.75 642.07, 1093.65 641.14, 1092.54 638.94 C 1091.42 636.75, 1090.27 635.63, 1088.89 633.05 C 1087.52 630.46, 1087.20 628.97, 1085.67 626.03 C 1084.14 623.08, 1083.16 621.42, 1081.25 618.31 C 1079.35 615.19, 1078.21 613.52, 1076.15 610.46 C 1074.08 607.40, 1073.16 605.71, 1070.92 603.03 C 1068.68 600.34, 1067.40 599.04, 1064.94 597.04 C 1062.48 595.03, 1061.23 594.20, 1058.62 593.01 C 1056.01 591.83, 1054.56 591.40, 1051.89 591.10 C 1049.21 590.80, 1047.85 591.11, 1045.24 591.51 C 1042.63 591.91, 1041.35 592.22, 1038.84 593.09 C 1036.33 593.96, 1035.04 594.47, 1032.68 595.86 C 1030.32 597.24, 1029.06 598.14, 1027.03 600.00 C 1024.99 601.86, 1024.04 603.00, 1022.52 605.17 C 1020.99 607.34, 1020.45 608.57, 1019.39 610.87 C 1018.33 613.17, 1018.01 614.40, 1017.20 616.68 C 1016.40 618.96, 1015.91 620.08, 1015.36 622.29 C 1014.80 624.50, 1014.78 625.59, 1014.44 627.74 C 1014.10 629.88, 1013.73 631.09, 1013.65 633.01 C 1013.58 634.94, 1013.74 636.03, 1014.07 637.35 C 1014.40 638.68, 1014.71 639.15, 1015.28 639.65 C 1015.86 640.14, 1016.40 640.25, 1016.95 639.84 C 1017.49 639.44, 1017.79 638.80, 1018.01 637.63 C 1018.22 636.47, 1018.16 635.63, 1018.01 634.01 C 1017.87 632.40, 1017.44 631.28, 1017.27 629.54 C 1017.09 627.80, 1017.17 627.12, 1017.14 625.30 C 1017.11 623.49, 1017.20 622.27, 1017.11 620.46 C 1017.02 618.65, 1016.81 617.70, 1016.67 616.24 C 1016.54 614.77, 1016.66 614.22, 1016.44 613.14 C 1016.21 612.06, 1016.04 611.28, 1015.55 610.83 C 1015.05 610.38, 1014.44 610.43, 1013.97 610.89" style="stroke: black; fill: black;"/></svg>